# xmcd
#
# Track frame offsets:
#	150
#	1280
#	19053
#	36023
#	54639
#	73631
#	97218
#	112263
#	129605
#	146645
#	164344
#	182135
#	200308
#	220199
#	237438
#	248597
#	269613
#
# Disc length: 3833 seconds
#
# Revision: 0
# Processed by: cddbd v1.5.1PL2 Copyright (c) Steve Scherf et al.
# Submitted via: dBpowerAMP V4.0
#
DISCID=fe0ef711
DTITLE=Trey Songz - Trey Songz
DYEAR=1900
DGENRE=
TTITLE0=a message from aretha
TTITLE1=just gotta make it
TTITLE2=good luvin
TTITLE3=gotta go
TTITLE4=ooo
TTITLE5=commin for u
TTITLE6=al i need
TTITLE7=tell me why
TTITLE8=tell me
TTITLE9=how could u
TTITLE10=lover
TTITLE11=jus beacuse
TTITLE12=hurt
TTITLE13=hot
TTITLE14=jus blaze
TTITLE15=hold up
TTITLE16=pushin it
EXTD=Trey Songz
EXTT0=
EXTT1=
EXTT2=
EXTT3=
EXTT4=
EXTT5=
EXTT6=
EXTT7=
EXTT8=
EXTT9=
EXTT10=
EXTT11=
EXTT12=
EXTT13=
EXTT14=
EXTT15=
EXTT16=
PLAYORDER=
